<svg id="visual" viewBox="0 0 5500 200" width="5500" height="200" xmlns="http://www.w3.org/2000/svg" xmlns:xlink="http://www.w3.org/1999/xlink" version="1.1"><path d="M0 174L34 165.8C68 157.7 136 141.3 203.8 140.2C271.7 139 339.3 153 407.2 158.3C475 163.7 543 160.3 611 140.5C679 120.7 747 84.3 815 79C883 73.7 951 99.3 1018.8 101.7C1086.7 104 1154.3 83 1222.2 67C1290 51 1358 40 1426 57.5C1494 75 1562 121 1629.8 134.5C1697.7 148 1765.3 129 1833.2 116.5C1901 104 1969 98 2037 95.7C2105 93.3 2173 94.7 2240.8 99.5C2308.7 104.3 2376.3 112.7 2444.2 109.5C2512 106.3 2580 91.7 2648 94.8C2716 98 2784 119 2852 118C2920 117 2988 94 3055.8 81.8C3123.7 69.7 3191.3 68.3 3259.2 87.8C3327 107.3 3395 147.7 3463 141.7C3531 135.7 3599 83.3 3666.8 63.5C3734.7 43.7 3802.3 56.3 3870.2 58.8C3938 61.3 4006 53.7 4074 63.3C4142 73 4210 100 4277.8 116.3C4345.7 132.7 4413.3 138.3 4481.2 146.3C4549 154.3 4617 164.7 4685 155.3C4753 146 4821 117 4889 118.7C4957 120.3 5025 152.7 5092.8 157.2C5160.7 161.7 5228.3 138.3 5296.2 138.2C5364 138 5432 161 5466 172.5L5500 184L5500 201L5466 201C5432 201 5364 201 5296.2 201C5228.3 201 5160.7 201 5092.8 201C5025 201 4957 201 4889 201C4821 201 4753 201 4685 201C4617 201 4549 201 4481.2 201C4413.3 201 4345.7 201 4277.8 201C4210 201 4142 201 4074 201C4006 201 3938 201 3870.2 201C3802.3 201 3734.7 201 3666.8 201C3599 201 3531 201 3463 201C3395 201 3327 201 3259.2 201C3191.3 201 3123.7 201 3055.8 201C2988 201 2920 201 2852 201C2784 201 2716 201 2648 201C2580 201 2512 201 2444.2 201C2376.3 201 2308.7 201 2240.8 201C2173 201 2105 201 2037 201C1969 201 1901 201 1833.2 201C1765.3 201 1697.7 201 1629.8 201C1562 201 1494 201 1426 201C1358 201 1290 201 1222.2 201C1154.3 201 1086.7 201 1018.8 201C951 201 883 201 815 201C747 201 679 201 611 201C543 201 475 201 407.2 201C339.3 201 271.7 201 203.8 201C136 201 68 201 34 201L0 201Z" fill="#3b3b3b" stroke-linecap="round" stroke-linejoin="miter"></path></svg>