<svg id="visual" viewBox="0 0 5500 200" width="5500" height="200" xmlns="http://www.w3.org/2000/svg" xmlns:xlink="http://www.w3.org/1999/xlink" version="1.1"><path d="M0 45L41.7 68.5C83.3 92 166.7 139 250 134C333.3 129 416.7 72 500 48.2C583.3 24.3 666.7 33.7 750 60.3C833.3 87 916.7 131 1000 155.7C1083.3 180.3 1166.7 185.7 1250 175.3C1333.3 165 1416.7 139 1500 118.2C1583.3 97.3 1666.7 81.7 1750 81.7C1833.3 81.7 1916.7 97.3 2000 98.2C2083.3 99 2166.7 85 2250 75.5C2333.3 66 2416.7 61 2500 71.8C2583.3 82.7 2666.7 109.3 2750 101.5C2833.3 93.7 2916.7 51.3 3000 43.3C3083.3 35.3 3166.7 61.7 3250 76.3C3333.3 91 3416.7 94 3500 108.8C3583.3 123.7 3666.7 150.3 3750 160.3C3833.3 170.3 3916.7 163.7 4000 134.8C4083.3 106 4166.7 55 4250 46.2C4333.3 37.3 4416.7 70.7 4500 74C4583.3 77.3 4666.7 50.7 4750 39.2C4833.3 27.7 4916.7 31.3 5000 33.8C5083.3 36.3 5166.7 37.7 5250 39.2C5333.3 40.7 5416.7 42.3 5458.3 43.2L5500 44L5500 201L5458.3 201C5416.7 201 5333.3 201 5250 201C5166.7 201 5083.3 201 5000 201C4916.7 201 4833.3 201 4750 201C4666.7 201 4583.3 201 4500 201C4416.7 201 4333.3 201 4250 201C4166.7 201 4083.3 201 4000 201C3916.7 201 3833.3 201 3750 201C3666.7 201 3583.3 201 3500 201C3416.7 201 3333.3 201 3250 201C3166.7 201 3083.3 201 3000 201C2916.7 201 2833.3 201 2750 201C2666.7 201 2583.3 201 2500 201C2416.7 201 2333.3 201 2250 201C2166.7 201 2083.3 201 2000 201C1916.7 201 1833.3 201 1750 201C1666.7 201 1583.3 201 1500 201C1416.7 201 1333.3 201 1250 201C1166.7 201 1083.3 201 1000 201C916.7 201 833.3 201 750 201C666.7 201 583.3 201 500 201C416.7 201 333.3 201 250 201C166.7 201 83.3 201 41.7 201L0 201Z" fill="#3b3b3b" stroke-linecap="round" stroke-linejoin="miter"></path></svg>