<svg id="visual" viewBox="0 0 5500 200" width="5500" height="200" xmlns="http://www.w3.org/2000/svg" xmlns:xlink="http://www.w3.org/1999/xlink" version="1.1"><path d="M0 181L29.5 165.8C59 150.7 118 120.3 177.2 122.5C236.3 124.7 295.7 159.3 354.8 146.8C414 134.3 473 74.7 532.2 60C591.3 45.3 650.7 75.7 709.8 94.8C769 114 828 122 887.2 108.3C946.3 94.7 1005.7 59.3 1064.8 53C1124 46.7 1183 69.3 1242 74.7C1301 80 1360 68 1419.2 85C1478.3 102 1537.7 148 1596.8 156C1656 164 1715 134 1774.2 102.2C1833.3 70.3 1892.7 36.7 1951.8 40.3C2011 44 2070 85 2129 96.8C2188 108.7 2247 91.3 2306.2 101C2365.3 110.7 2424.7 147.3 2483.8 148.3C2543 149.3 2602 114.7 2661.2 98.7C2720.3 82.7 2779.7 85.3 2838.8 95.2C2898 105 2957 122 3016.2 108.7C3075.3 95.3 3134.7 51.7 3193.8 32C3253 12.3 3312 16.7 3371 31C3430 45.3 3489 69.7 3548.2 71.5C3607.3 73.3 3666.7 52.7 3725.8 62.3C3785 72 3844 112 3903.2 121.5C3962.3 131 4021.7 110 4080.8 101.8C4140 93.7 4199 98.3 4258 93C4317 87.7 4376 72.3 4435.2 75.8C4494.3 79.3 4553.7 101.7 4612.8 104.8C4672 108 4731 92 4790.2 84.5C4849.3 77 4908.7 78 4967.8 97.5C5027 117 5086 155 5145.2 168.3C5204.3 181.7 5263.7 170.3 5322.8 164.8C5382 159.3 5441 159.7 5470.5 159.8L5500 160L5500 201L5470.5 201C5441 201 5382 201 5322.8 201C5263.7 201 5204.3 201 5145.2 201C5086 201 5027 201 4967.8 201C4908.7 201 4849.3 201 4790.2 201C4731 201 4672 201 4612.8 201C4553.7 201 4494.3 201 4435.2 201C4376 201 4317 201 4258 201C4199 201 4140 201 4080.8 201C4021.7 201 3962.3 201 3903.2 201C3844 201 3785 201 3725.8 201C3666.7 201 3607.3 201 3548.2 201C3489 201 3430 201 3371 201C3312 201 3253 201 3193.8 201C3134.7 201 3075.3 201 3016.2 201C2957 201 2898 201 2838.8 201C2779.7 201 2720.3 201 2661.2 201C2602 201 2543 201 2483.8 201C2424.7 201 2365.3 201 2306.2 201C2247 201 2188 201 2129 201C2070 201 2011 201 1951.8 201C1892.7 201 1833.3 201 1774.2 201C1715 201 1656 201 1596.8 201C1537.7 201 1478.3 201 1419.2 201C1360 201 1301 201 1242 201C1183 201 1124 201 1064.8 201C1005.7 201 946.3 201 887.2 201C828 201 769 201 709.8 201C650.7 201 591.3 201 532.2 201C473 201 414 201 354.8 201C295.7 201 236.3 201 177.2 201C118 201 59 201 29.5 201L0 201Z" fill="#3b3b3b" stroke-linecap="round" stroke-linejoin="miter"></path></svg>